# xmcd CD database file
#
# Track frame offsets:
#	150
#	27370
#	50927
#	77705
#	102855
#	122410
#	143290
#	165337
#	192530
#	219320
#	234042
#
# Disc length: 3523 seconds
#
# Revision: 0
# Processed by: cddbd v1.5.2PL0 Copyright (c) Steve Scherf et al.
# Submitted via: CD2WAV32(JP) R3.22
#
DISCID=850dc10b
DTITLE=川井憲次 - DEATH NOTE × DEATH NOTE the Last name × L change the WorLd original soundtrack Triple Club Re-mix
DYEAR=2008
DGENRE=JPop
TTITLE0=a heart attack（Yukihiro Fukutomi Remix）
TTITLE1=disturbance～make a noise in the world（Crude Reality Remix）
TTITLE2=be cute（The mfs mix）
TTITLE3=Dear（AKAKAGE’s Hare Toki-doki Kumori Remix）
TTITLE4=sad man～the dignity of man～pure love（Jazztronik Remix）
TTITLE5=memo paper（Masaki Sakamoto Remix）
TTITLE6=the Last name（DJ MAAR’s TRIANGLE Remix）
TTITLE7=a heart attack（meltdown mix）
TTITLE8=near（DJ TOMO Remix）
TTITLE9=stranger～parental love（9SoDNtLn．00：29）
TTITLE10=Logic～a Challenge～Make a Noise in the World（Ken Ishii Remix）
EXTD=
EXTT0=
EXTT1=
EXTT2=
EXTT3=
EXTT4=
EXTT5=
EXTT6=
EXTT7=
EXTT8=
EXTT9=
EXTT10=
PLAYORDER=
